<?xml version="1.0" encoding="UTF-8"?>
<svg xmlns="http://www.w3.org/2000/svg" xmlns:xlink="http://www.w3.org/1999/xlink" width="50px" height="50px" viewBox="0 0 50 50" version="1.1">
<g id="surface1">
<path style=" stroke:none;fill-rule:nonzero;fill:rgb(98.823529%,86.274511%,0%);fill-opacity:1;" d="M 25.035156 48.878906 C 11.867188 48.875 1.191406 38.203125 1.191406 25.035156 C 1.191406 11.867188 11.867188 1.191406 25.035156 1.191406 C 38.203125 1.191406 48.875 11.867188 48.878906 25.035156 C 48.839844 38.1875 38.1875 48.839844 25.035156 48.878906 Z M 25.035156 48.878906 "/>
<path style=" stroke:none;fill-rule:nonzero;fill:rgb(9.019608%,21.176471%,27.843139%);fill-opacity:1;" d="M 25.035156 2.382812 C 37.542969 2.382812 47.679688 12.523438 47.679688 25.03125 C 47.679688 37.539062 37.539062 47.679688 25.03125 47.679688 C 12.523438 47.679688 2.382812 37.542969 2.382812 25.035156 C 2.378906 19.023438 4.761719 13.261719 9.011719 9.011719 C 13.261719 4.761719 19.023438 2.378906 25.035156 2.382812 M 25.035156 0 C 11.207031 0 0 11.207031 0 25.035156 C 0 38.859375 11.210938 50.070312 25.035156 50.066406 C 38.859375 50.066406 50.070312 38.859375 50.070312 25.035156 C 50.070312 11.207031 38.859375 -0.00390625 25.035156 0 Z M 25.035156 0 "/>
<path style=" stroke:none;fill-rule:nonzero;fill:rgb(9.019608%,21.176471%,27.843139%);fill-opacity:1;" d="M 39.457031 23.960938 L 41.359375 21.21875 L 39.335938 16.210938 L 35.996094 15.617188 L 34.566406 14.066406 L 33.976562 10.726562 L 28.847656 8.582031 L 26.105469 10.488281 L 24.082031 10.488281 L 21.339844 8.582031 L 16.210938 10.726562 L 15.617188 14.0625 L 14.066406 15.492188 L 10.726562 16.09375 L 8.582031 21.101562 L 10.488281 23.84375 L 10.488281 25.984375 L 8.582031 28.730469 L 10.726562 33.855469 L 14.0625 34.453125 L 15.492188 35.882812 L 16.089844 39.21875 L 21.097656 41.363281 L 23.839844 39.457031 L 25.980469 39.457031 L 28.722656 41.363281 L 33.847656 39.335938 L 34.445312 35.996094 L 35.875 34.566406 L 39.210938 33.972656 L 41.355469 28.964844 L 39.449219 26.222656 Z M 38.621094 29.207031 L 37.550781 31.828125 L 34.808594 32.304688 L 32.191406 34.808594 L 31.714844 37.550781 L 29.09375 38.625 L 26.824219 37.074219 L 23.246094 37.074219 L 20.980469 38.625 L 18.363281 37.550781 L 17.886719 34.808594 L 15.265625 32.191406 L 12.523438 31.714844 L 11.453125 29.097656 L 13 26.832031 L 13 23.246094 L 11.441406 20.980469 L 12.511719 18.363281 L 15.253906 17.886719 L 17.757812 15.382812 L 18.234375 12.640625 L 20.855469 11.566406 L 23.117188 13.117188 L 26.695312 13.117188 L 28.960938 11.566406 L 31.578125 12.640625 L 32.054688 15.382812 L 34.558594 17.886719 L 37.300781 18.363281 L 38.375 20.980469 L 36.835938 23.246094 L 36.835938 26.820312 Z M 38.621094 29.207031 "/>
<path style=" stroke:none;fill-rule:nonzero;fill:rgb(9.019608%,21.176471%,27.843139%);fill-opacity:1;" d="M 30.757812 18.835938 L 29.207031 20.625 C 30.683594 21.871094 31.550781 23.695312 31.585938 25.632812 C 31.59375 27.371094 30.902344 29.042969 29.671875 30.273438 C 28.441406 31.503906 26.769531 32.191406 25.03125 32.1875 L 24.671875 32.1875 L 29.320312 24.914062 L 24.078125 23.722656 L 28.015625 16.808594 L 25.988281 15.617188 L 20.503906 25.273438 L 25.511719 26.347656 L 22.292969 31.472656 C 20.03125 30.40625 18.59375 28.128906 18.597656 25.632812 C 18.613281 23.894531 19.296875 22.230469 20.5 20.980469 L 18.835938 19.316406 C 15.972656 22.175781 15.390625 26.601562 17.414062 30.105469 C 19.4375 33.609375 23.5625 35.320312 27.46875 34.269531 C 31.378906 33.222656 34.09375 29.679688 34.09375 25.632812 C 33.910156 23.019531 32.710938 20.582031 30.757812 18.835938 Z M 30.757812 18.835938 "/>
</g>
</svg>
